PathFileType	4	(X/Y/Z)	C:/Users/opensim2020/Desktop/walking_exp_matlab/subject03_walking10_straight_01.trc	
DataRate	CameraRate	NumFrames	NumMarkers	Units	OrigDataRate	OrigDataStartFrame	OrigNumFrames	
100.00	100.00	5	45	mm	100.00	718	477	
Frame#	Time	LFHD			RFHD			LBHD			RBHD			C7			T10			CLAV			STRN			RBAK			LSHO			LUPA			LELB			LFRM			LWRA			LWRB			LFIN			RSHO			RUPA			RELB			RFRM			RWRA			RWRB			RFIN			LASI			RASI			LPSI			RPSI			LTHI			LKNE			LTIB			LANK			LHEE			LTOE			RTHI			RKNE			RTIB			RANK			RHEE			RTOE			*39			*40			*41			*42			*43			*44			
		X1	Y1	Z1	X2	Y2	Z2	X3	Y3	Z3	X4	Y4	Z4	X5	Y5	Z5	X6	Y6	Z6	X7	Y7	Z7	X8	Y8	Z8	X9	Y9	Z9	X10	Y10	Z10	X11	Y11	Z11	X12	Y12	Z12	X13	Y13	Z13	X14	Y14	Z14	X15	Y15	Z15	X16	Y16	Z16	X17	Y17	Z17	X18	Y18	Z18	X19	Y19	Z19	X20	Y20	Z20	X21	Y21	Z21	X22	Y22	Z22	X23	Y23	Z23	X24	Y24	Z24	X25	Y25	Z25	X26	Y26	Z26	X27	Y27	Z27	X28	Y28	Z28	X29	Y29	Z29	X30	Y30	Z30	X31	Y31	Z31	X32	Y32	Z32	X33	Y33	Z33	X34	Y34	Z34	X35	Y35	Z35	X36	Y36	Z36	X37	Y37	Z37	X38	Y38	Z38	X39	Y39	Z39	X40	Y40	Z40	X41	Y41	Z41	X42	Y42	Z42	X43	Y43	Z43	X44	Y44	Z44	X45	Y45	Z45	

60	0.590	1393.68225	-1180.33069	1635.62866	1526.18982	-1189.60144	1636.14233	1388.86279	-1302.49463	1576.98254	1519.58008	-1307.27649	1578.04333	1443.54272	-1323.24585	1424.55737	1440.42334	-1362.38416	1114.21240	1444.66821	-1198.82629	1348.06702	1433.32813	-1159.14124	1181.43201	1533.83936	-1379.85254	1248.17078	1289.58081	-1241.31726	1389.48230	1217.33374	-1238.09619	1194.75024	1204.11658	-1217.10706	1073.47424	1201.69910	-1168.41809	952.50659	1231.36462	-1124.58838	841.48401	1183.09326	-1152.80835	840.81586	1191.50476	-1119.68286	762.99512	1603.72852	-1251.44897	1366.85229	1672.12769	-1242.66675	1144.10681	1683.00854	-1218.85486	1033.61902	1681.91418	-1190.61877	899.46582	1643.50879	-1153.20105	808.21069	1687.73865	-1182.86902	799.27991	1676.15454	-1153.44897	731.19244	1317.15369	-1213.69812	941.70428	1553.53992	-1197.22632	945.62134	1376.15222	-1372.29480	968.95874	1524.05078	-1359.25635	984.25842	1258.35144	-1258.34045	640.87939	1270.57605	-1235.99951	462.44513	1284.56360	-1379.94897	326.72919	1334.82898	-1514.26270	171.81114	1381.40637	-1560.98108	167.46431	1331.92444	-1426.43579	52.15134	1594.80164	-1252.54260	655.84680	1557.41113	-1233.84985	475.70569	1560.40125	-1268.67554	289.53696	1509.18970	-1277.96863	73.33427	1458.64709	-1320.12537	40.35192	1493.12646	-1134.26282	37.47821																		 
61	0.600	1394.00635	-1175.92383	1635.76807	1526.56274	-1184.84290	1636.41187	1389.53027	-1297.83936	1576.90210	1520.27319	-1302.40552	1578.04041	1444.53625	-1318.63904	1424.84839	1441.54749	-1358.06189	1114.48633	1445.07898	-1194.20105	1348.20923	1433.75403	-1154.98560	1181.45886	1535.37952	-1375.05762	1248.63721	1290.17236	-1237.58093	1389.54846	1218.09863	-1235.34851	1194.78589	1204.94482	-1214.98145	1073.30579	1202.34875	-1166.86658	952.02118	1231.78601	-1123.40137	840.77441	1183.82349	-1151.99744	840.24689	1192.02393	-1119.17566	762.31372	1604.28809	-1246.06763	1367.16821	1673.04858	-1235.57898	1144.61987	1684.11096	-1210.98022	1034.35254	1683.03735	-1181.99890	900.38214	1644.49976	-1144.26038	809.16583	1689.07117	-1173.54639	800.27655	1677.52795	-1143.94580	732.39270	1317.92029	-1209.44067	942.42883	1554.13354	-1192.81079	945.69727	1376.93970	-1367.87488	969.17627	1524.91711	-1354.79456	984.29944	1259.31531	-1249.74268	641.55682	1271.77173	-1224.00110	463.56244	1285.03711	-1367.08228	327.09644	1334.66516	-1500.59033	171.30011	1380.90527	-1547.74207	165.86057	1331.88428	-1410.84778	53.45011	1595.11719	-1249.09290	655.78711	1557.66785	-1231.49854	475.55878	1560.54700	-1267.29248	289.54553	1509.22473	-1277.98267	73.41562	1458.65137	-1320.19617	40.39710	1493.09753	-1134.28247	37.48331																		 
62	0.610	1394.23389	-1171.56445	1635.89795	1526.85474	-1179.90063	1636.54919	1390.13928	-1293.38501	1577.05054	1520.86975	-1297.50024	1578.09766	1445.49341	-1314.06738	1425.09106	1442.74255	-1353.64612	1114.75085	1445.49670	-1189.60754	1348.34656	1434.05115	-1149.71838	1182.18567	1536.84558	-1370.18555	1249.07593	1290.71094	-1233.83252	1389.67236	1219.09106	-1231.89587	1194.58179	1205.73645	-1212.86731	1073.23694	1202.99829	-1165.35681	951.70648	1232.22522	-1122.32983	840.22302	1184.42883	-1151.22339	839.81622	1192.57556	-1118.68567	761.74005	1604.89978	-1240.43982	1367.45679	1673.88171	-1228.61047	1145.26062	1684.94348	-1203.09570	1035.07227	1684.12891	-1173.34460	901.32990	1645.54626	-1135.43127	810.20923	1690.31396	-1164.21606	801.26080	1679.04907	-1134.75598	733.97607	1318.68286	-1204.99768	943.27454	1554.77051	-1188.46155	945.87128	1377.64294	-1363.39343	969.47253	1525.70313	-1350.29297	984.37073	1260.22192	-1241.17627	642.41486	1272.56946	-1212.61218	465.00327	1285.63611	-1353.95203	327.16324	1334.45593	-1486.21643	169.94398	1380.63940	-1534.18787	163.59033	1332.38513	-1393.88574	54.47636	1595.42371	-1245.57080	655.71948	1557.84875	-1228.97607	475.33786	1560.61816	-1265.86182	289.59631	1509.22876	-1277.86328	73.47545	1458.69641	-1320.16772	40.46958	1493.04614	-1134.25208	37.45144																		 
63	0.620	1394.47107	-1167.02197	1636.05774	1527.03308	-1175.08093	1636.76416	1390.66602	-1288.77710	1577.04211	1521.44556	-1292.63342	1578.23047	1446.39832	-1309.55908	1425.31030	1443.94385	-1349.22815	1114.98145	1445.84973	-1184.92334	1348.55847	1434.24536	-1146.29858	1181.78223	1538.22083	-1365.33167	1249.55652	1291.18347	-1230.24011	1389.82361	1219.65723	-1229.42773	1194.72412	1206.48059	-1210.72900	1073.18384	1203.58411	-1163.85632	951.44482	1232.66858	-1121.25159	839.75354	1185.11548	-1150.33118	839.41870	1193.19873	-1118.18518	761.18665	1605.40149	-1234.90039	1367.80579	1674.71179	-1221.64063	1145.88525	1685.80005	-1195.32227	1035.98853	1685.13452	-1164.75879	902.36798	1646.39709	-1126.56750	811.33264	1691.58484	-1155.02844	802.34296	1680.07141	-1125.36890	735.09900	1319.72766	-1200.42993	944.14655	1555.36633	-1183.99756	945.99823	1378.14832	-1358.96887	969.78241	1526.44470	-1345.84265	984.40143	1261.28943	-1232.48157	643.20685	1274.28149	-1200.83594	466.20999	1286.15515	-1340.53040	326.75461	1334.34888	-1471.15845	167.86168	1379.96460	-1519.64209	160.29897	1333.10620	-1376.22241	54.76571	1595.63367	-1241.97986	655.51190	1558.01624	-1226.50977	475.21460	1560.69202	-1264.48096	289.59802	1509.22522	-1277.81775	73.59609	1458.71448	-1320.15637	40.55318	1492.99097	-1134.22314	37.43180																		 
64	0.630	1394.63806	-1162.51770	1636.17993	1527.12842	-1170.17517	1636.92224	1391.16187	-1284.29749	1577.18359	1521.90137	-1287.77747	1578.38159	1447.24072	-1305.07129	1425.55981	1445.14355	-1344.85962	1115.30310	1446.08081	-1180.36340	1348.70947	1434.48840	-1141.93188	1181.97693	1539.58447	-1360.45044	1250.00989	1291.59070	-1226.71680	1389.97009	1220.11523	-1226.91663	1194.86316	1207.13184	-1208.69617	1073.14441	1204.13452	-1162.49097	951.25586	1233.19873	-1120.01672	839.46777	1185.59448	-1149.51685	839.17041	1193.79749	-1117.65247	760.68500	1605.82971	-1229.68188	1368.20435	1675.34900	-1214.65540	1146.49426	1686.48950	-1187.56262	1036.81409	1686.02991	-1156.27649	903.41498	1647.34924	-1117.85620	812.51807	1692.65344	-1145.98547	803.55908	1681.18945	-1115.91199	736.31537	1320.52246	-1195.94299	944.93811	1556.11475	-1179.62708	946.07343	1378.67102	-1354.45593	970.14117	1527.06360	-1341.37903	984.41956	1262.26807	-1223.90308	644.13910	1275.43079	-1189.91162	467.77628	1286.73254	-1326.86340	325.92068	1334.25220	-1455.57422	165.10437	1379.42188	-1504.49634	156.16109	1334.07300	-1357.50574	54.99714	1595.83545	-1238.37134	655.34961	1558.16528	-1223.97021	475.01111	1560.37439	-1262.52637	289.32910	1509.25146	-1277.81067	73.70902	1458.73303	-1320.18933	40.69477	1492.95898	-1134.21118	37.39957																		 
